<?xml version="1.0" encoding="UTF-8" standalone="no"?>
<svg
   id="svg6"
   version="1.1"
   viewBox="0 0 24 24"
   height="24"
   width="24"
   sodipodi:docname="icon-light-blue.svg"
   inkscape:version="1.1 (c68e22c387, 2021-05-23)"
   xmlns:inkscape="http://www.inkscape.org/namespaces/inkscape"
   xmlns:sodipodi="http://sodipodi.sourceforge.net/DTD/sodipodi-0.dtd"
   xmlns="http://www.w3.org/2000/svg"
   xmlns:svg="http://www.w3.org/2000/svg"
   xmlns:rdf="http://www.w3.org/1999/02/22-rdf-syntax-ns#"
   xmlns:cc="http://creativecommons.org/ns#"
   xmlns:dc="http://purl.org/dc/elements/1.1/">
  <sodipodi:namedview
     id="namedview23978"
     pagecolor="#505050"
     bordercolor="#eeeeee"
     borderopacity="1"
     inkscape:pageshadow="0"
     inkscape:pageopacity="0"
     inkscape:pagecheckerboard="0"
     showgrid="false"
     inkscape:zoom="23.923779"
     inkscape:cx="9.7601635"
     inkscape:cy="12.748822"
     inkscape:window-width="1600"
     inkscape:window-height="1712"
     inkscape:window-x="3991"
     inkscape:window-y="0"
     inkscape:window-maximized="0"
     inkscape:current-layer="svg6" />
  <metadata
     id="metadata12">
    <rdf:RDF>
      <cc:Work
         rdf:about="">
        <dc:format>image/svg+xml</dc:format>
        <dc:type
           rdf:resource="http://purl.org/dc/dcmitype/StillImage" />
        <dc:title />
      </cc:Work>
    </rdf:RDF>
  </metadata>
  <defs
     id="defs10" />
  <path
     id="path2"
     fill="none"
     d="M0 0h24v24H0z" />
  <path
     id="path4"
     d="M 12,2 C 6.48,2 2,6.48 2,12 2,17.52 6.48,22 12,22 17.52,22 22,17.52 22,12 22,6.48 17.52,2 12,2 Z m 0,2.083113 c 2.21,0 4,1.79 4,4 h 0.5 c 1.38,0 2.5,1.119999 2.5,2.5 0,1.38 -1.12,2.5 -2.5,2.5 h -2.130859 l -2.464844,2.474609 h 4.15625 L 8.4003906,19.98155 11.878906,16.503035 H 8.7050781 L 10.539062,13.083113 H 8 c -1.66,0 -3,-1.34 -3,-3 0,-1.660001 1.34,-3 3,-3 l 0.140625,0.0098 C 8.580625,5.362908 10.13,4.083143 12,4.083143 Z"
     sodipodi:nodetypes="sssssscssscccccccssccs"
     style="fill:#4caf50;fill-opacity:1" />
</svg>
